<svg xmlns="http://www.w3.org/2000/svg" viewBox="0 0 372.2 294.61"><defs><style>.cls-1,.cls-2{fill:#4d4d4d;}.cls-2{font-size:54.07px;font-family:BernardMT-Condensed, Bernard MT Condensed;}.cls-3{letter-spacing:-0.07em;}</style></defs><title>logo</title><g id="Layer_2" data-name="Layer 2"><g id="text"><path class="cls-1" d="M313.3,87.92l-1.09.09-.69-.13a41,41,0,0,1-6.15-1.69c-4.23-1-8.68-3-8.5-6.81,0-.07,0-.14,0-.21s0-.31.07-.47c1.44-7.75,12.48-7.19,12.48-7.19L293.49,56.25l-1,.36-.7.06a41.09,41.09,0,0,1-6.34-.05h0c-4.35.1-9.18-.67-10-4.37a1.55,1.55,0,0,1,0-.21,3.78,3.78,0,0,1-.06-.47c-.61-7.86,10.2-10.17,10.2-10.17L266.16,30.78l-.9.62-.66.23a40.06,40.06,0,0,1-6.17,1.61h0c-4.18,1.21-9,1.71-10.76-1.64l-.09-.2c-.07-.14-.12-.28-.18-.43-2.63-7.44,7.22-12.47,7.22-12.47l-21.43-5.25-.72.83-.58.4a41.3,41.3,0,0,1-5.53,3.14c-3.73,2.26-8.29,4-10.84,1.21l-.13-.16a3.47,3.47,0,0,1-.29-.38c-4.46-6.5,3.74-13.91,3.74-13.91l-22.06.48-.48,1-.45.54a41.88,41.88,0,0,1-4.53,4.47c-3,3.14-7,6-10.15,4L181,14.7c-.12-.1-.25-.19-.37-.3-6-5.12,0-14.4,0-14.4L159.44,6.17l-.21,1.08-.3.63a40.78,40.78,0,0,1-3.21,5.49c-2.11,3.82-5.19,7.61-8.79,6.46l-.2-.07a4.07,4.07,0,0,1-.44-.18c-7.11-3.41-3.71-13.92-3.71-13.92L123.72,17.1l.08,1.09-.13.7A41.66,41.66,0,0,1,122,25c-1,4.22-3,8.67-6.81,8.5l-.21,0a3.81,3.81,0,0,1-.47-.07C106.74,32,107.3,21,107.3,21L92,36.91l.36,1c0,.21,0,.45,0,.71a39.58,39.58,0,0,1,0,6.33c.1,4.37-.67,9.21-4.37,10l-.22,0a3.4,3.4,0,0,1-.46.06C79.5,55.71,77.19,44.9,77.19,44.9L66.57,64.24l.62.9c.06.21.15.42.23.67A41.24,41.24,0,0,1,69,72h0c1.21,4.17,1.71,9-1.65,10.75a1.11,1.11,0,0,1-.19.09,3.25,3.25,0,0,1-.43.18c-7.44,2.63-12.47-7.21-12.47-7.21L49,97.23l.83.71.4.59a40.48,40.48,0,0,1,3.14,5.52h0a23.37,23.37,0,0,1,1.85,3.67h16a118.65,118.65,0,0,1,223.68,0h18.14c4.41-3.28,11.66-.94,11.66-.94Zm3,108.75-.39-.58a39.57,39.57,0,0,1-3.15-5.53h0a24.1,24.1,0,0,1-1.84-3.66h-16a118.66,118.66,0,0,1-223.68,0H53.12c-4.41,3.28-11.67.93-11.67.93l11.44,18.87,1.09-.08.7.13a41.33,41.33,0,0,1,6.15,1.69h0c4.22,1,8.65,3,8.47,6.8a1.62,1.62,0,0,1,0,.22,4.11,4.11,0,0,1-.07.47c-1.44,7.75-12.48,7.18-12.48,7.18L72.7,238.36l1-.35.71-.06a40.8,40.8,0,0,1,6.33,0h0c4.36-.09,9.19.68,10,4.37a1.43,1.43,0,0,1,0,.22,3.62,3.62,0,0,1,.06.46c.61,7.87-10.2,10.18-10.2,10.18L100,263.83l.91-.61.67-.23a38.79,38.79,0,0,1,6.16-1.61h0c4.19-1.2,9-1.7,10.76,1.65l.09.2a4.27,4.27,0,0,1,.18.43c2.63,7.44-7.21,12.47-7.21,12.47L133,281.36l.71-.82.58-.4a40.79,40.79,0,0,1,5.54-3.15h0c3.73-2.26,8.29-4,10.82-1.2l.15.16a3.73,3.73,0,0,1,.28.38c4.46,6.5-3.74,13.91-3.74,13.91l22.06-.48.48-1c.13-.16.29-.34.46-.53a39.92,39.92,0,0,1,4.52-4.47c3-3.15,7-6,10.16-4l.17.12.38.29c6,5.13,0,14.4,0,14.4l21.18-6.17.21-1.07c.09-.19.19-.41.3-.63h0a41.37,41.37,0,0,1,3.21-5.48h0c2.1-3.81,5.18-7.61,8.78-6.46l.2.07.44.19c7.11,3.4,3.71,13.92,3.71,13.92l18.87-11.45-.08-1.09c0-.21.08-.44.13-.69a41,41,0,0,1,1.69-6.15v0c1-4.22,3-8.66,6.8-8.48h.22l.46.07c7.75,1.45,7.19,12.48,7.19,12.48l15.26-15.93-.36-1c0-.21,0-.45-.05-.71a39.58,39.58,0,0,1,0-6.33v0c-.1-4.35.68-9.18,4.37-10l.22,0a3.31,3.31,0,0,1,.47-.07c7.86-.61,10.17,10.2,10.17,10.2l10.61-19.34-.61-.91c-.07-.2-.15-.42-.23-.66a40,40,0,0,1-1.62-6.17h0c-1.21-4.18-1.71-9,1.65-10.76l.19-.09c.14-.07.29-.12.44-.18,7.43-2.62,12.47,7.22,12.47,7.22l5.24-21.43Z"/><path class="cls-1" d="M287.72,107.73H78.47a111.87,111.87,0,0,1,209.25,0Z"/><path class="cls-1" d="M151.32,224.6v3.94h-1.61V224.6q0-1.11.81-1.11C151.05,223.49,151.32,223.86,151.32,224.6Z"/><path class="cls-1" d="M201.11,221a.71.71,0,0,0-.65-.33c-.59,0-.88.5-.88,1.5v13.76c0,.78.27,1.17.83,1.17a.74.74,0,0,0,.64-.35,1.33,1.33,0,0,0,.25-.82V222.16A2.47,2.47,0,0,0,201.11,221Zm0,0a.71.71,0,0,0-.65-.33c-.59,0-.88.5-.88,1.5v13.76c0,.78.27,1.17.83,1.17a.74.74,0,0,0,.64-.35,1.33,1.33,0,0,0,.25-.82V222.16A2.47,2.47,0,0,0,201.11,221ZM78.47,186.89a111.89,111.89,0,0,0,209.26,0ZM155.05,230h-5.34v4.86a2.6,2.6,0,0,0,.38,1.5,1.1,1.1,0,0,0,.95.55,1.73,1.73,0,0,0,1.45-.76,3.76,3.76,0,0,0,.57-2.1,1.78,1.78,0,0,1,.14-.86c.08-.09.37-.14.86-.14a1.52,1.52,0,0,1,.81.13c.12.09.18.3.18.66a4.94,4.94,0,0,1-1.19,3.25,3.9,3.9,0,0,1-3.15,1.43,4.69,4.69,0,0,1-3.82-2q-1.56-2-1.56-6.14a11.17,11.17,0,0,1,1.45-6.25,4.41,4.41,0,0,1,3.8-2.14,3.75,3.75,0,0,1,3.25,1.81,9.13,9.13,0,0,1,1.22,5.13Zm7.45,7.48a2.37,2.37,0,0,1-1.9,1,2.67,2.67,0,0,1-1.45-.5,1.34,1.34,0,0,0-.56-.27c-.11,0-.18.08-.19.27a.71.71,0,0,1-.14.4,1.16,1.16,0,0,1-.62.1A.54.54,0,0,1,157,238l-.6-3.31q0-.24,0-.3c0-.22.26-.34.8-.34a1.09,1.09,0,0,1,.57.11,1.76,1.76,0,0,1,.41.62c.62,1.29,1.21,1.94,1.76,1.94.36,0,.54-.22.54-.64a3.54,3.54,0,0,0-.4-1.42c-.27-.56-.79-1.48-1.55-2.76a24.84,24.84,0,0,1-1.75-3.42,7.35,7.35,0,0,1-.55-2.77,4.2,4.2,0,0,1,.81-2.82,2.54,2.54,0,0,1,2-.92,3,3,0,0,1,1.38.42,1.46,1.46,0,0,0,.54.21c.12,0,.2-.09.22-.25s.09-.28.19-.32a1.91,1.91,0,0,1,.61-.06.81.81,0,0,1,.39.06.82.82,0,0,1,.15.38l.66,3.29c0,.11,0,.2,0,.28s-.21.33-.64.33a1.31,1.31,0,0,1-.62-.11,1.45,1.45,0,0,1-.45-.57,8.11,8.11,0,0,0-.87-1.29c-.39-.5-.74-.75-1-.75a.4.4,0,0,0-.32.16.6.6,0,0,0-.13.4,11.81,11.81,0,0,0,1.73,3.43,25.28,25.28,0,0,1,2,3.85,8.76,8.76,0,0,1,.54,3.16A4.64,4.64,0,0,1,162.5,237.51ZM170,223.39c0,.26-.14.38-.41.38h-.74v12.31a1,1,0,0,0,.56.91.65.65,0,0,1,.35.32,1.79,1.79,0,0,1,.09.69c0,.2,0,.32-.05.34s-.12,0-.29,0h-3.75a2.92,2.92,0,0,1-.85-2.3V223.77h-.47a.49.49,0,0,1-.26,0,.48.48,0,0,1,0-.27v-.85a.66.66,0,0,1,0-.31c0-.05.14-.08.32-.11a3.29,3.29,0,0,0,1.72-.95,3.2,3.2,0,0,0,1-1.76.7.7,0,0,1,.15-.41.61.61,0,0,1,.36-.07h.77c.21,0,.31.14.31.41v2.74h.74c.27,0,.41.13.41.39Zm4.9,14.4a1.8,1.8,0,0,1-1.44.76,1.67,1.67,0,0,1-1.36-.68,2.59,2.59,0,0,1-.54-1.68,3.05,3.05,0,0,1,.51-1.75,1.57,1.57,0,0,1,1.39-.75,1.85,1.85,0,0,1,1.46.68,2.61,2.61,0,0,1,.57,1.7A2.72,2.72,0,0,1,174.86,237.79Zm19.2-4.41c0,.21-.12.72-.25,1.53s-.28,1.65-.42,2.3a3.63,3.63,0,0,1-.31,1.07c-.07.07-.25.1-.55.1h-9.38V235.6c0-.39.33-.88,1-1.48a33.5,33.5,0,0,0,2.32-2.72,15.25,15.25,0,0,0,2.34-3.7,11.22,11.22,0,0,0,.53-3.84,5.48,5.48,0,0,0-.38-2.59,1.27,1.27,0,0,0-1.11-.58,1.19,1.19,0,0,0-.86.31,1.09,1.09,0,0,0-.31.81,4.82,4.82,0,0,0,.06.69,7.47,7.47,0,0,1,.07,1,2.52,2.52,0,0,1-.49,1.67,1.56,1.56,0,0,1-1.25.6,1.5,1.5,0,0,1-1.28-.65,2.48,2.48,0,0,1-.48-1.54,4.22,4.22,0,0,1,1.4-3.19,5.26,5.26,0,0,1,3.76-1.32,5.34,5.34,0,0,1,3.92,1.52,5.21,5.21,0,0,1,1.54,3.91,6.13,6.13,0,0,1-.55,2.55,7.42,7.42,0,0,1-1.48,2.16,34.19,34.19,0,0,1-2.77,2.37,30.9,30.9,0,0,0-3.64,3.19h6a.74.74,0,0,0,.63-.3,2.84,2.84,0,0,0,.4-1.13.73.73,0,0,1,.23-.46,1.19,1.19,0,0,1,.65-.11c.49,0,.74.1.74.32A.85.85,0,0,1,194.06,233.38Zm10.25,2.7a4.62,4.62,0,0,1-3.91,2.5,4.5,4.5,0,0,1-3.77-2.38c-1.06-1.58-1.58-4-1.58-7.27s.52-5.69,1.56-7.34a4.59,4.59,0,0,1,3.94-2.48,4,4,0,0,1,2.81,1.24,7.69,7.69,0,0,1,1.92,3.36,17.38,17.38,0,0,1,.64,5C205.92,232,205.39,234.42,204.31,236.08Zm9.34,2.3H208.2c-.23,0-.37,0-.42-.11a1.06,1.06,0,0,1-.08-.52,2.48,2.48,0,0,1,.07-.74c0-.09.21-.18.49-.27.45-.13.67-.33.67-.58V224.31a5.92,5.92,0,0,1-1.82.37c-.25,0-.37-.14-.37-.41v-.47a.67.67,0,0,1,.11-.41,1.34,1.34,0,0,1,.54-.31,8.11,8.11,0,0,0,1.55-1,9.77,9.77,0,0,0,1.93-1.93,7,7,0,0,1,.85-1,1,1,0,0,1,.45-.08h1v17.2c0,.17.14.33.4.46a.84.84,0,0,1,.43.35,3.71,3.71,0,0,1,.07,1C214.06,238.28,213.93,238.38,213.65,238.38ZM227,220.19a2.42,2.42,0,0,1-.33,1,37.33,37.33,0,0,0-1.92,5.24,26.47,26.47,0,0,0-1.12,7.88,8.63,8.63,0,0,0,.13,2.08,1.13,1.13,0,0,0,.51.53c.17.09.25.31.25.66a2.85,2.85,0,0,1-.05.73c0,.07-.16.1-.38.1H219c-.2,0-.33,0-.39-.1a1.25,1.25,0,0,1-.08-.59,2.13,2.13,0,0,1,.06-.66.88.88,0,0,1,.39-.29.51.51,0,0,0,.27-.31,2.92,2.92,0,0,0,.06-.71,17,17,0,0,1,.73-4.17,22.83,22.83,0,0,1,2.07-5.06L224,223h-5c-.39,0-.69.26-.91.79a3.77,3.77,0,0,1-.28.57c-.08.13-.47.19-1.17.19q-.36,0-.36-.27v-.13l.34-4a1,1,0,0,1,.18-.62,1.21,1.21,0,0,1,.65-.11h9.12a.62.62,0,0,1,.31,0s.05.1.05.23Zm-26.54.47c-.59,0-.88.5-.88,1.5v13.76c0,.78.27,1.17.83,1.17a.74.74,0,0,0,.64-.35,1.33,1.33,0,0,0,.25-.82V222.16a2.47,2.47,0,0,0-.19-1.17A.71.71,0,0,0,200.46,220.66Zm.65.33a.71.71,0,0,0-.65-.33c-.59,0-.88.5-.88,1.5v13.76c0,.78.27,1.17.83,1.17a.74.74,0,0,0,.64-.35,1.33,1.33,0,0,0,.25-.82V222.16A2.47,2.47,0,0,0,201.11,221Zm0,0a.71.71,0,0,0-.65-.33c-.59,0-.88.5-.88,1.5v13.76c0,.78.27,1.17.83,1.17a.74.74,0,0,0,.64-.35,1.33,1.33,0,0,0,.25-.82V222.16A2.47,2.47,0,0,0,201.11,221Z"/><text class="cls-2" transform="translate(0 165.38)">KOLE`S KRE<tspan class="cls-3" x="234.6" y="0">A</tspan><tspan x="256.72" y="0">TIONS</tspan></text></g></g></svg>